<mxfile host="app.diagrams.net" agent="Mozilla/5.0 (X11; Linux x86_64; rv:135.0) Gecko/20100101 Firefox/135.0" version="26.0.16">
  <diagram name="Page-1" id="2xKNmPbRvTcJsNJkrDok">
    <mxGraphModel dx="1247" dy="690" grid="1" gridSize="10" guides="1" tooltips="1" connect="1" arrows="1" fold="1" page="1" pageScale="1" pageWidth="850" pageHeight="1100" math="0" shadow="0">
      <root>
        <mxCell id="0" />
        <mxCell id="1" parent="0" />
        <mxCell id="_DyhmnH1X0i6e9Q3qZGH-2" value="&lt;div&gt;Tienda Ecommerce Design&lt;/div&gt;" style="swimlane;whiteSpace=wrap;html=1;" vertex="1" parent="1">
          <mxGeometry x="300" y="210" width="270" height="460" as="geometry" />
        </mxCell>
        <mxCell id="_DyhmnH1X0i6e9Q3qZGH-4" value="&lt;div&gt;Authentication&lt;/div&gt;" style="ellipse;whiteSpace=wrap;html=1;" vertex="1" parent="_DyhmnH1X0i6e9Q3qZGH-2">
          <mxGeometry x="20" y="60" width="80" height="30" as="geometry" />
        </mxCell>
        <mxCell id="_DyhmnH1X0i6e9Q3qZGH-6" value="Add to cart" style="ellipse;whiteSpace=wrap;html=1;" vertex="1" parent="_DyhmnH1X0i6e9Q3qZGH-2">
          <mxGeometry x="20.000000000000004" y="147.5" width="80" height="30" as="geometry" />
        </mxCell>
        <mxCell id="_DyhmnH1X0i6e9Q3qZGH-9" value="Place order" style="ellipse;whiteSpace=wrap;html=1;" vertex="1" parent="_DyhmnH1X0i6e9Q3qZGH-2">
          <mxGeometry x="20" y="190" width="80" height="40" as="geometry" />
        </mxCell>
        <mxCell id="_DyhmnH1X0i6e9Q3qZGH-37" value="Browse Products" style="ellipse;whiteSpace=wrap;html=1;" vertex="1" parent="_DyhmnH1X0i6e9Q3qZGH-2">
          <mxGeometry x="20" y="100" width="80" height="35" as="geometry" />
        </mxCell>
        <mxCell id="_DyhmnH1X0i6e9Q3qZGH-39" value="&lt;div&gt;Manage orders&lt;/div&gt;" style="ellipse;whiteSpace=wrap;html=1;" vertex="1" parent="_DyhmnH1X0i6e9Q3qZGH-2">
          <mxGeometry x="180" y="80" width="60" height="30" as="geometry" />
        </mxCell>
        <mxCell id="_DyhmnH1X0i6e9Q3qZGH-41" value="&lt;div&gt;Track order&lt;/div&gt;" style="ellipse;whiteSpace=wrap;html=1;" vertex="1" parent="_DyhmnH1X0i6e9Q3qZGH-2">
          <mxGeometry x="20" y="350" width="80" height="40" as="geometry" />
        </mxCell>
        <mxCell id="_DyhmnH1X0i6e9Q3qZGH-44" value="Manage Products" style="ellipse;whiteSpace=wrap;html=1;" vertex="1" parent="_DyhmnH1X0i6e9Q3qZGH-2">
          <mxGeometry x="180" y="145" width="60" height="35" as="geometry" />
        </mxCell>
        <mxCell id="_DyhmnH1X0i6e9Q3qZGH-53" value="Deliver Orders" style="ellipse;whiteSpace=wrap;html=1;" vertex="1" parent="_DyhmnH1X0i6e9Q3qZGH-2">
          <mxGeometry x="164" y="190" width="90" height="40" as="geometry" />
        </mxCell>
        <mxCell id="_DyhmnH1X0i6e9Q3qZGH-64" value="Process Payment" style="ellipse;whiteSpace=wrap;html=1;" vertex="1" parent="_DyhmnH1X0i6e9Q3qZGH-2">
          <mxGeometry x="80" y="290" width="85" height="30" as="geometry" />
        </mxCell>
        <mxCell id="_DyhmnH1X0i6e9Q3qZGH-50" value="Handle Refunds" style="ellipse;whiteSpace=wrap;html=1;" vertex="1" parent="_DyhmnH1X0i6e9Q3qZGH-2">
          <mxGeometry x="175" y="40" width="80" height="30" as="geometry" />
        </mxCell>
        <mxCell id="_DyhmnH1X0i6e9Q3qZGH-72" value="" style="triangle;whiteSpace=wrap;html=1;rotation=-90;" vertex="1" parent="_DyhmnH1X0i6e9Q3qZGH-2">
          <mxGeometry x="115" y="315" width="20" height="30" as="geometry" />
        </mxCell>
        <mxCell id="_DyhmnH1X0i6e9Q3qZGH-75" value="COD" style="whiteSpace=wrap;html=1;" vertex="1" parent="_DyhmnH1X0i6e9Q3qZGH-2">
          <mxGeometry x="75" y="400" width="50" height="20" as="geometry" />
        </mxCell>
        <mxCell id="_DyhmnH1X0i6e9Q3qZGH-76" value="Khalti" style="rounded=0;whiteSpace=wrap;html=1;" vertex="1" parent="_DyhmnH1X0i6e9Q3qZGH-2">
          <mxGeometry x="175" y="360" width="60" height="20" as="geometry" />
        </mxCell>
        <mxCell id="_DyhmnH1X0i6e9Q3qZGH-77" value="" style="endArrow=none;html=1;rounded=0;entryX=0;entryY=0.75;entryDx=0;entryDy=0;exitX=0.25;exitY=0;exitDx=0;exitDy=0;" edge="1" parent="_DyhmnH1X0i6e9Q3qZGH-2" source="_DyhmnH1X0i6e9Q3qZGH-76" target="_DyhmnH1X0i6e9Q3qZGH-72">
          <mxGeometry width="50" height="50" relative="1" as="geometry">
            <mxPoint x="-200" y="410" as="sourcePoint" />
            <mxPoint x="-150" y="360" as="targetPoint" />
          </mxGeometry>
        </mxCell>
        <mxCell id="_DyhmnH1X0i6e9Q3qZGH-3" value="&lt;div&gt;Customer&lt;/div&gt;&lt;div&gt;&lt;br&gt;&lt;/div&gt;" style="shape=umlActor;verticalLabelPosition=bottom;verticalAlign=top;html=1;outlineConnect=0;" vertex="1" parent="1">
          <mxGeometry x="80" y="380" width="30" height="60" as="geometry" />
        </mxCell>
        <mxCell id="_DyhmnH1X0i6e9Q3qZGH-5" value="" style="endArrow=none;html=1;rounded=0;entryX=0.039;entryY=0.653;entryDx=0;entryDy=0;entryPerimeter=0;" edge="1" parent="1" source="_DyhmnH1X0i6e9Q3qZGH-3" target="_DyhmnH1X0i6e9Q3qZGH-4">
          <mxGeometry width="50" height="50" relative="1" as="geometry">
            <mxPoint x="240" y="360" as="sourcePoint" />
            <mxPoint x="290" y="310" as="targetPoint" />
          </mxGeometry>
        </mxCell>
        <mxCell id="_DyhmnH1X0i6e9Q3qZGH-8" value="" style="endArrow=none;html=1;rounded=0;entryX=-0.001;entryY=0.733;entryDx=0;entryDy=0;entryPerimeter=0;" edge="1" parent="1" source="_DyhmnH1X0i6e9Q3qZGH-3" target="_DyhmnH1X0i6e9Q3qZGH-6">
          <mxGeometry width="50" height="50" relative="1" as="geometry">
            <mxPoint x="190" y="460" as="sourcePoint" />
            <mxPoint x="240" y="410" as="targetPoint" />
          </mxGeometry>
        </mxCell>
        <mxCell id="_DyhmnH1X0i6e9Q3qZGH-11" value="" style="endArrow=none;html=1;rounded=0;entryX=0;entryY=0.5;entryDx=0;entryDy=0;" edge="1" parent="1" source="_DyhmnH1X0i6e9Q3qZGH-3" target="_DyhmnH1X0i6e9Q3qZGH-9">
          <mxGeometry width="50" height="50" relative="1" as="geometry">
            <mxPoint x="110" y="410" as="sourcePoint" />
            <mxPoint x="250" y="440" as="targetPoint" />
          </mxGeometry>
        </mxCell>
        <mxCell id="_DyhmnH1X0i6e9Q3qZGH-36" value="&lt;div&gt;Admin&lt;/div&gt;" style="shape=umlActor;verticalLabelPosition=bottom;verticalAlign=top;html=1;outlineConnect=0;" vertex="1" parent="1">
          <mxGeometry x="730" y="310" width="30" height="60" as="geometry" />
        </mxCell>
        <mxCell id="_DyhmnH1X0i6e9Q3qZGH-38" value="" style="endArrow=none;html=1;rounded=0;" edge="1" parent="1" source="_DyhmnH1X0i6e9Q3qZGH-3" target="_DyhmnH1X0i6e9Q3qZGH-37">
          <mxGeometry width="50" height="50" relative="1" as="geometry">
            <mxPoint x="210" y="440" as="sourcePoint" />
            <mxPoint x="260" y="390" as="targetPoint" />
          </mxGeometry>
        </mxCell>
        <mxCell id="_DyhmnH1X0i6e9Q3qZGH-40" value="" style="endArrow=none;html=1;rounded=0;" edge="1" parent="1" source="_DyhmnH1X0i6e9Q3qZGH-39" target="_DyhmnH1X0i6e9Q3qZGH-36">
          <mxGeometry width="50" height="50" relative="1" as="geometry">
            <mxPoint x="520.0005241775592" y="314.69566788412544" as="sourcePoint" />
            <mxPoint x="713.9699999999999" y="396.79999999999984" as="targetPoint" />
          </mxGeometry>
        </mxCell>
        <mxCell id="_DyhmnH1X0i6e9Q3qZGH-43" value="" style="endArrow=none;html=1;rounded=0;" edge="1" parent="1" source="_DyhmnH1X0i6e9Q3qZGH-3" target="_DyhmnH1X0i6e9Q3qZGH-41">
          <mxGeometry width="50" height="50" relative="1" as="geometry">
            <mxPoint x="160" y="550" as="sourcePoint" />
            <mxPoint x="210" y="500" as="targetPoint" />
          </mxGeometry>
        </mxCell>
        <mxCell id="_DyhmnH1X0i6e9Q3qZGH-45" value="" style="endArrow=none;html=1;rounded=0;" edge="1" parent="1" source="_DyhmnH1X0i6e9Q3qZGH-44" target="_DyhmnH1X0i6e9Q3qZGH-36">
          <mxGeometry width="50" height="50" relative="1" as="geometry">
            <mxPoint x="130" y="590" as="sourcePoint" />
            <mxPoint x="180" y="540" as="targetPoint" />
          </mxGeometry>
        </mxCell>
        <mxCell id="_DyhmnH1X0i6e9Q3qZGH-46" value="&lt;div&gt;Payment System&lt;/div&gt;" style="shape=umlActor;verticalLabelPosition=bottom;verticalAlign=top;html=1;outlineConnect=0;" vertex="1" parent="1">
          <mxGeometry x="720" y="540" width="30" height="60" as="geometry" />
        </mxCell>
        <mxCell id="_DyhmnH1X0i6e9Q3qZGH-52" value="Shipping Service" style="shape=umlActor;verticalLabelPosition=bottom;verticalAlign=top;html=1;outlineConnect=0;" vertex="1" parent="1">
          <mxGeometry x="730" y="420" width="30" height="60" as="geometry" />
        </mxCell>
        <mxCell id="_DyhmnH1X0i6e9Q3qZGH-56" value="" style="endArrow=none;html=1;rounded=0;" edge="1" parent="1" source="_DyhmnH1X0i6e9Q3qZGH-52" target="_DyhmnH1X0i6e9Q3qZGH-53">
          <mxGeometry width="50" height="50" relative="1" as="geometry">
            <mxPoint x="460" y="680" as="sourcePoint" />
            <mxPoint x="510" y="630" as="targetPoint" />
          </mxGeometry>
        </mxCell>
        <mxCell id="_DyhmnH1X0i6e9Q3qZGH-66" value="" style="endArrow=none;html=1;rounded=0;" edge="1" parent="1" source="_DyhmnH1X0i6e9Q3qZGH-76" target="_DyhmnH1X0i6e9Q3qZGH-46">
          <mxGeometry width="50" height="50" relative="1" as="geometry">
            <mxPoint x="470" y="600" as="sourcePoint" />
            <mxPoint x="520" y="550" as="targetPoint" />
          </mxGeometry>
        </mxCell>
        <mxCell id="_DyhmnH1X0i6e9Q3qZGH-74" value="" style="endArrow=none;html=1;rounded=0;entryX=0;entryY=0.25;entryDx=0;entryDy=0;" edge="1" parent="1" target="_DyhmnH1X0i6e9Q3qZGH-72">
          <mxGeometry width="50" height="50" relative="1" as="geometry">
            <mxPoint x="400" y="610" as="sourcePoint" />
            <mxPoint x="220" y="570" as="targetPoint" />
          </mxGeometry>
        </mxCell>
        <mxCell id="_DyhmnH1X0i6e9Q3qZGH-78" value="" style="endArrow=none;html=1;rounded=0;" edge="1" parent="1" source="_DyhmnH1X0i6e9Q3qZGH-50" target="_DyhmnH1X0i6e9Q3qZGH-36">
          <mxGeometry width="50" height="50" relative="1" as="geometry">
            <mxPoint x="630" y="490" as="sourcePoint" />
            <mxPoint x="680" y="440" as="targetPoint" />
          </mxGeometry>
        </mxCell>
        <mxCell id="_DyhmnH1X0i6e9Q3qZGH-79" value="" style="endArrow=none;html=1;rounded=0;entryX=0;entryY=0;entryDx=0;entryDy=0;" edge="1" parent="1" source="_DyhmnH1X0i6e9Q3qZGH-3" target="_DyhmnH1X0i6e9Q3qZGH-64">
          <mxGeometry width="50" height="50" relative="1" as="geometry">
            <mxPoint x="110" y="600" as="sourcePoint" />
            <mxPoint x="160" y="550" as="targetPoint" />
          </mxGeometry>
        </mxCell>
      </root>
    </mxGraphModel>
  </diagram>
</mxfile>
